<?xml version="1.0" encoding="utf-8" standalone="no"?>
<!DOCTYPE svg PUBLIC "-//W3C//DTD SVG 1.1//EN"
  "http://www.w3.org/Graphics/SVG/1.1/DTD/svg11.dtd">
<!-- Created with matplotlib (http://matplotlib.org/) -->
<svg height="432pt" version="1.1" viewBox="0 0 576 432" width="576pt" xmlns="http://www.w3.org/2000/svg" xmlns:xlink="http://www.w3.org/1999/xlink">
 <defs>
  <style type="text/css">
*{stroke-linecap:butt;stroke-linejoin:round;stroke-miterlimit:100000;}
  </style>
 </defs>
 <g id="figure_1">
  <g id="patch_1">
   <path d="M 0 432 
L 576 432 
L 576 0 
L 0 0 
z
" style="fill:#ffffff;"/>
  </g>
  <g id="axes_1">
   <g id="patch_2">
    <path d="M 72 345.6 
L 518.4 345.6 
L 518.4 43.2 
L 72 43.2 
z
" style="fill:#e5e5e5;"/>
   </g>
   <g id="matplotlib.axis_1">
    <g id="xtick_1">
     <g id="line2d_1">
      <path clip-path="url(#paf4016fb26)" d="M 129.007792 345.6 
L 129.007792 43.2 
" style="fill:none;stroke:#ffffff;stroke-linecap:square;stroke-width:0.5;"/>
     </g>
     <g id="line2d_2">
      <defs>
       <path d="M 0 0 
L 0 4 
" id="m78f4041950" style="stroke:#555555;stroke-width:0.5;"/>
      </defs>
      <g>
       <use style="fill:#555555;stroke:#555555;stroke-width:0.5;" x="129.007792208" xlink:href="#m78f4041950" y="345.6"/>
      </g>
     </g>
     <g id="line2d_3">
      <defs>
       <path d="M 0 0 
L 0 -4 
" id="me938ac7a98" style="stroke:#555555;stroke-width:0.5;"/>
      </defs>
      <g>
       <use style="fill:#555555;stroke:#555555;stroke-width:0.5;" x="129.007792208" xlink:href="#me938ac7a98" y="43.2"/>
      </g>
     </g>
     <g id="text_1">
      <!-- Aug 2015 -->
      <defs>
       <path d="M 31.78125 66.40625 
Q 24.171875 66.40625 20.328125 58.90625 
Q 16.5 51.421875 16.5 36.375 
Q 16.5 21.390625 20.328125 13.890625 
Q 24.171875 6.390625 31.78125 6.390625 
Q 39.453125 6.390625 43.28125 13.890625 
Q 47.125 21.390625 47.125 36.375 
Q 47.125 51.421875 43.28125 58.90625 
Q 39.453125 66.40625 31.78125 66.40625 
M 31.78125 74.21875 
Q 44.046875 74.21875 50.515625 64.515625 
Q 56.984375 54.828125 56.984375 36.375 
Q 56.984375 17.96875 50.515625 8.265625 
Q 44.046875 -1.421875 31.78125 -1.421875 
Q 19.53125 -1.421875 13.0625 8.265625 
Q 6.59375 17.96875 6.59375 36.375 
Q 6.59375 54.828125 13.0625 64.515625 
Q 19.53125 74.21875 31.78125 74.21875 
" id="BitstreamVeraSans-Roman-30"/>
       <path id="BitstreamVeraSans-Roman-20"/>
       <path d="M 19.1875 8.296875 
L 53.609375 8.296875 
L 53.609375 0 
L 7.328125 0 
L 7.328125 8.296875 
Q 12.9375 14.109375 22.625 23.890625 
Q 32.328125 33.6875 34.8125 36.53125 
Q 39.546875 41.84375 41.421875 45.53125 
Q 43.3125 49.21875 43.3125 52.78125 
Q 43.3125 58.59375 39.234375 62.25 
Q 35.15625 65.921875 28.609375 65.921875 
Q 23.96875 65.921875 18.8125 64.3125 
Q 13.671875 62.703125 7.8125 59.421875 
L 7.8125 69.390625 
Q 13.765625 71.78125 18.9375 73 
Q 24.125 74.21875 28.421875 74.21875 
Q 39.75 74.21875 46.484375 68.546875 
Q 53.21875 62.890625 53.21875 53.421875 
Q 53.21875 48.921875 51.53125 44.890625 
Q 49.859375 40.875 45.40625 35.40625 
Q 44.1875 33.984375 37.640625 27.21875 
Q 31.109375 20.453125 19.1875 8.296875 
" id="BitstreamVeraSans-Roman-32"/>
       <path d="M 45.40625 27.984375 
Q 45.40625 37.75 41.375 43.109375 
Q 37.359375 48.484375 30.078125 48.484375 
Q 22.859375 48.484375 18.828125 43.109375 
Q 14.796875 37.75 14.796875 27.984375 
Q 14.796875 18.265625 18.828125 12.890625 
Q 22.859375 7.515625 30.078125 7.515625 
Q 37.359375 7.515625 41.375 12.890625 
Q 45.40625 18.265625 45.40625 27.984375 
M 54.390625 6.78125 
Q 54.390625 -7.171875 48.1875 -13.984375 
Q 42 -20.796875 29.203125 -20.796875 
Q 24.46875 -20.796875 20.265625 -20.09375 
Q 16.0625 -19.390625 12.109375 -17.921875 
L 12.109375 -9.1875 
Q 16.0625 -11.328125 19.921875 -12.34375 
Q 23.78125 -13.375 27.78125 -13.375 
Q 36.625 -13.375 41.015625 -8.765625 
Q 45.40625 -4.15625 45.40625 5.171875 
L 45.40625 9.625 
Q 42.625 4.78125 38.28125 2.390625 
Q 33.9375 0 27.875 0 
Q 17.828125 0 11.671875 7.65625 
Q 5.515625 15.328125 5.515625 27.984375 
Q 5.515625 40.671875 11.671875 48.328125 
Q 17.828125 56 27.875 56 
Q 33.9375 56 38.28125 53.609375 
Q 42.625 51.21875 45.40625 46.390625 
L 45.40625 54.6875 
L 54.390625 54.6875 
z
" id="BitstreamVeraSans-Roman-67"/>
       <path d="M 34.1875 63.1875 
L 20.796875 26.90625 
L 47.609375 26.90625 
z
M 28.609375 72.90625 
L 39.796875 72.90625 
L 67.578125 0 
L 57.328125 0 
L 50.6875 18.703125 
L 17.828125 18.703125 
L 11.1875 0 
L 0.78125 0 
z
" id="BitstreamVeraSans-Roman-41"/>
       <path d="M 10.796875 72.90625 
L 49.515625 72.90625 
L 49.515625 64.59375 
L 19.828125 64.59375 
L 19.828125 46.734375 
Q 21.96875 47.46875 24.109375 47.828125 
Q 26.265625 48.1875 28.421875 48.1875 
Q 40.625 48.1875 47.75 41.5 
Q 54.890625 34.8125 54.890625 23.390625 
Q 54.890625 11.625 47.5625 5.09375 
Q 40.234375 -1.421875 26.90625 -1.421875 
Q 22.3125 -1.421875 17.546875 -0.640625 
Q 12.796875 0.140625 7.71875 1.703125 
L 7.71875 11.625 
Q 12.109375 9.234375 16.796875 8.0625 
Q 21.484375 6.890625 26.703125 6.890625 
Q 35.15625 6.890625 40.078125 11.328125 
Q 45.015625 15.765625 45.015625 23.390625 
Q 45.015625 31 40.078125 35.4375 
Q 35.15625 39.890625 26.703125 39.890625 
Q 22.75 39.890625 18.8125 39.015625 
Q 14.890625 38.140625 10.796875 36.28125 
z
" id="BitstreamVeraSans-Roman-35"/>
       <path d="M 12.40625 8.296875 
L 28.515625 8.296875 
L 28.515625 63.921875 
L 10.984375 60.40625 
L 10.984375 69.390625 
L 28.421875 72.90625 
L 38.28125 72.90625 
L 38.28125 8.296875 
L 54.390625 8.296875 
L 54.390625 0 
L 12.40625 0 
z
" id="BitstreamVeraSans-Roman-31"/>
       <path d="M 8.5 21.578125 
L 8.5 54.6875 
L 17.484375 54.6875 
L 17.484375 21.921875 
Q 17.484375 14.15625 20.5 10.265625 
Q 23.53125 6.390625 29.59375 6.390625 
Q 36.859375 6.390625 41.078125 11.03125 
Q 45.3125 15.671875 45.3125 23.6875 
L 45.3125 54.6875 
L 54.296875 54.6875 
L 54.296875 0 
L 45.3125 0 
L 45.3125 8.40625 
Q 42.046875 3.421875 37.71875 1 
Q 33.40625 -1.421875 27.6875 -1.421875 
Q 18.265625 -1.421875 13.375 4.4375 
Q 8.5 10.296875 8.5 21.578125 
" id="BitstreamVeraSans-Roman-75"/>
      </defs>
      <g style="fill:#555555;" transform="translate(86.2647657715 384.257783654)rotate(-30.0)scale(0.1 -0.1)">
       <use xlink:href="#BitstreamVeraSans-Roman-41"/>
       <use x="68.408203125" xlink:href="#BitstreamVeraSans-Roman-75"/>
       <use x="131.787109375" xlink:href="#BitstreamVeraSans-Roman-67"/>
       <use x="195.263671875" xlink:href="#BitstreamVeraSans-Roman-20"/>
       <use x="227.05078125" xlink:href="#BitstreamVeraSans-Roman-32"/>
       <use x="290.673828125" xlink:href="#BitstreamVeraSans-Roman-30"/>
       <use x="354.296875" xlink:href="#BitstreamVeraSans-Roman-31"/>
       <use x="417.919921875" xlink:href="#BitstreamVeraSans-Roman-35"/>
      </g>
     </g>
    </g>
    <g id="xtick_2">
     <g id="line2d_4">
      <path clip-path="url(#paf4016fb26)" d="M 187.948052 345.6 
L 187.948052 43.2 
" style="fill:none;stroke:#ffffff;stroke-linecap:square;stroke-width:0.5;"/>
     </g>
     <g id="line2d_5">
      <g>
       <use style="fill:#555555;stroke:#555555;stroke-width:0.5;" x="187.948051948" xlink:href="#m78f4041950" y="345.6"/>
      </g>
     </g>
     <g id="line2d_6">
      <g>
       <use style="fill:#555555;stroke:#555555;stroke-width:0.5;" x="187.948051948" xlink:href="#me938ac7a98" y="43.2"/>
      </g>
     </g>
     <g id="text_2">
      <!-- Oct 2015 -->
      <defs>
       <path d="M 48.78125 52.59375 
L 48.78125 44.1875 
Q 44.96875 46.296875 41.140625 47.34375 
Q 37.3125 48.390625 33.40625 48.390625 
Q 24.65625 48.390625 19.8125 42.84375 
Q 14.984375 37.3125 14.984375 27.296875 
Q 14.984375 17.28125 19.8125 11.734375 
Q 24.65625 6.203125 33.40625 6.203125 
Q 37.3125 6.203125 41.140625 7.25 
Q 44.96875 8.296875 48.78125 10.40625 
L 48.78125 2.09375 
Q 45.015625 0.34375 40.984375 -0.53125 
Q 36.96875 -1.421875 32.421875 -1.421875 
Q 20.0625 -1.421875 12.78125 6.34375 
Q 5.515625 14.109375 5.515625 27.296875 
Q 5.515625 40.671875 12.859375 48.328125 
Q 20.21875 56 33.015625 56 
Q 37.15625 56 41.109375 55.140625 
Q 45.0625 54.296875 48.78125 52.59375 
" id="BitstreamVeraSans-Roman-63"/>
       <path d="M 39.40625 66.21875 
Q 28.65625 66.21875 22.328125 58.203125 
Q 16.015625 50.203125 16.015625 36.375 
Q 16.015625 22.609375 22.328125 14.59375 
Q 28.65625 6.59375 39.40625 6.59375 
Q 50.140625 6.59375 56.421875 14.59375 
Q 62.703125 22.609375 62.703125 36.375 
Q 62.703125 50.203125 56.421875 58.203125 
Q 50.140625 66.21875 39.40625 66.21875 
M 39.40625 74.21875 
Q 54.734375 74.21875 63.90625 63.9375 
Q 73.09375 53.65625 73.09375 36.375 
Q 73.09375 19.140625 63.90625 8.859375 
Q 54.734375 -1.421875 39.40625 -1.421875 
Q 24.03125 -1.421875 14.8125 8.828125 
Q 5.609375 19.09375 5.609375 36.375 
Q 5.609375 53.65625 14.8125 63.9375 
Q 24.03125 74.21875 39.40625 74.21875 
" id="BitstreamVeraSans-Roman-4f"/>
       <path d="M 18.3125 70.21875 
L 18.3125 54.6875 
L 36.8125 54.6875 
L 36.8125 47.703125 
L 18.3125 47.703125 
L 18.3125 18.015625 
Q 18.3125 11.328125 20.140625 9.421875 
Q 21.96875 7.515625 27.59375 7.515625 
L 36.8125 7.515625 
L 36.8125 0 
L 27.59375 0 
Q 17.1875 0 13.234375 3.875 
Q 9.28125 7.765625 9.28125 18.015625 
L 9.28125 47.703125 
L 2.6875 47.703125 
L 2.6875 54.6875 
L 9.28125 54.6875 
L 9.28125 70.21875 
z
" id="BitstreamVeraSans-Roman-74"/>
      </defs>
      <g style="fill:#555555;" transform="translate(147.141404188 383.139814904)rotate(-30.0)scale(0.1 -0.1)">
       <use xlink:href="#BitstreamVeraSans-Roman-4f"/>
       <use x="78.7109375" xlink:href="#BitstreamVeraSans-Roman-63"/>
       <use x="133.69140625" xlink:href="#BitstreamVeraSans-Roman-74"/>
       <use x="172.900390625" xlink:href="#BitstreamVeraSans-Roman-20"/>
       <use x="204.6875" xlink:href="#BitstreamVeraSans-Roman-32"/>
       <use x="268.310546875" xlink:href="#BitstreamVeraSans-Roman-30"/>
       <use x="331.93359375" xlink:href="#BitstreamVeraSans-Roman-31"/>
       <use x="395.556640625" xlink:href="#BitstreamVeraSans-Roman-35"/>
      </g>
     </g>
    </g>
    <g id="xtick_3">
     <g id="line2d_7">
      <path clip-path="url(#paf4016fb26)" d="M 246.888312 345.6 
L 246.888312 43.2 
" style="fill:none;stroke:#ffffff;stroke-linecap:square;stroke-width:0.5;"/>
     </g>
     <g id="line2d_8">
      <g>
       <use style="fill:#555555;stroke:#555555;stroke-width:0.5;" x="246.888311688" xlink:href="#m78f4041950" y="345.6"/>
      </g>
     </g>
     <g id="line2d_9">
      <g>
       <use style="fill:#555555;stroke:#555555;stroke-width:0.5;" x="246.888311688" xlink:href="#me938ac7a98" y="43.2"/>
      </g>
     </g>
     <g id="text_3">
      <!-- Dec 2015 -->
      <defs>
       <path d="M 19.671875 64.796875 
L 19.671875 8.109375 
L 31.59375 8.109375 
Q 46.6875 8.109375 53.6875 14.9375 
Q 60.6875 21.78125 60.6875 36.53125 
Q 60.6875 51.171875 53.6875 57.984375 
Q 46.6875 64.796875 31.59375 64.796875 
z
M 9.8125 72.90625 
L 30.078125 72.90625 
Q 51.265625 72.90625 61.171875 64.09375 
Q 71.09375 55.28125 71.09375 36.53125 
Q 71.09375 17.671875 61.125 8.828125 
Q 51.171875 0 30.078125 0 
L 9.8125 0 
z
" id="BitstreamVeraSans-Roman-44"/>
       <path d="M 56.203125 29.59375 
L 56.203125 25.203125 
L 14.890625 25.203125 
Q 15.484375 15.921875 20.484375 11.0625 
Q 25.484375 6.203125 34.421875 6.203125 
Q 39.59375 6.203125 44.453125 7.46875 
Q 49.3125 8.734375 54.109375 11.28125 
L 54.109375 2.78125 
Q 49.265625 0.734375 44.1875 -0.34375 
Q 39.109375 -1.421875 33.890625 -1.421875 
Q 20.796875 -1.421875 13.15625 6.1875 
Q 5.515625 13.8125 5.515625 26.8125 
Q 5.515625 40.234375 12.765625 48.109375 
Q 20.015625 56 32.328125 56 
Q 43.359375 56 49.78125 48.890625 
Q 56.203125 41.796875 56.203125 29.59375 
M 47.21875 32.234375 
Q 47.125 39.59375 43.09375 43.984375 
Q 39.0625 48.390625 32.421875 48.390625 
Q 24.90625 48.390625 20.390625 44.140625 
Q 15.875 39.890625 15.1875 32.171875 
z
" id="BitstreamVeraSans-Roman-65"/>
      </defs>
      <g style="fill:#555555;" transform="translate(204.296839698 384.170283654)rotate(-30.0)scale(0.1 -0.1)">
       <use xlink:href="#BitstreamVeraSans-Roman-44"/>
       <use x="77.001953125" xlink:href="#BitstreamVeraSans-Roman-65"/>
       <use x="138.525390625" xlink:href="#BitstreamVeraSans-Roman-63"/>
       <use x="193.505859375" xlink:href="#BitstreamVeraSans-Roman-20"/>
       <use x="225.29296875" xlink:href="#BitstreamVeraSans-Roman-32"/>
       <use x="288.916015625" xlink:href="#BitstreamVeraSans-Roman-30"/>
       <use x="352.5390625" xlink:href="#BitstreamVeraSans-Roman-31"/>
       <use x="416.162109375" xlink:href="#BitstreamVeraSans-Roman-35"/>
      </g>
     </g>
    </g>
    <g id="xtick_4">
     <g id="line2d_10">
      <path clip-path="url(#paf4016fb26)" d="M 306.794805 345.6 
L 306.794805 43.2 
" style="fill:none;stroke:#ffffff;stroke-linecap:square;stroke-width:0.5;"/>
     </g>
     <g id="line2d_11">
      <g>
       <use style="fill:#555555;stroke:#555555;stroke-width:0.5;" x="306.794805195" xlink:href="#m78f4041950" y="345.6"/>
      </g>
     </g>
     <g id="line2d_12">
      <g>
       <use style="fill:#555555;stroke:#555555;stroke-width:0.5;" x="306.794805195" xlink:href="#me938ac7a98" y="43.2"/>
      </g>
     </g>
     <g id="text_4">
      <!-- Feb 2016 -->
      <defs>
       <path d="M 48.6875 27.296875 
Q 48.6875 37.203125 44.609375 42.84375 
Q 40.53125 48.484375 33.40625 48.484375 
Q 26.265625 48.484375 22.1875 42.84375 
Q 18.109375 37.203125 18.109375 27.296875 
Q 18.109375 17.390625 22.1875 11.75 
Q 26.265625 6.109375 33.40625 6.109375 
Q 40.53125 6.109375 44.609375 11.75 
Q 48.6875 17.390625 48.6875 27.296875 
M 18.109375 46.390625 
Q 20.953125 51.265625 25.265625 53.625 
Q 29.59375 56 35.59375 56 
Q 45.5625 56 51.78125 48.09375 
Q 58.015625 40.1875 58.015625 27.296875 
Q 58.015625 14.40625 51.78125 6.484375 
Q 45.5625 -1.421875 35.59375 -1.421875 
Q 29.59375 -1.421875 25.265625 0.953125 
Q 20.953125 3.328125 18.109375 8.203125 
L 18.109375 0 
L 9.078125 0 
L 9.078125 75.984375 
L 18.109375 75.984375 
z
" id="BitstreamVeraSans-Roman-62"/>
       <path d="M 33.015625 40.375 
Q 26.375 40.375 22.484375 35.828125 
Q 18.609375 31.296875 18.609375 23.390625 
Q 18.609375 15.53125 22.484375 10.953125 
Q 26.375 6.390625 33.015625 6.390625 
Q 39.65625 6.390625 43.53125 10.953125 
Q 47.40625 15.53125 47.40625 23.390625 
Q 47.40625 31.296875 43.53125 35.828125 
Q 39.65625 40.375 33.015625 40.375 
M 52.59375 71.296875 
L 52.59375 62.3125 
Q 48.875 64.0625 45.09375 64.984375 
Q 41.3125 65.921875 37.59375 65.921875 
Q 27.828125 65.921875 22.671875 59.328125 
Q 17.53125 52.734375 16.796875 39.40625 
Q 19.671875 43.65625 24.015625 45.921875 
Q 28.375 48.1875 33.59375 48.1875 
Q 44.578125 48.1875 50.953125 41.515625 
Q 57.328125 34.859375 57.328125 23.390625 
Q 57.328125 12.15625 50.6875 5.359375 
Q 44.046875 -1.421875 33.015625 -1.421875 
Q 20.359375 -1.421875 13.671875 8.265625 
Q 6.984375 17.96875 6.984375 36.375 
Q 6.984375 53.65625 15.1875 63.9375 
Q 23.390625 74.21875 37.203125 74.21875 
Q 40.921875 74.21875 44.703125 73.484375 
Q 48.484375 72.75 52.59375 71.296875 
" id="BitstreamVeraSans-Roman-36"/>
       <path d="M 9.8125 72.90625 
L 51.703125 72.90625 
L 51.703125 64.59375 
L 19.671875 64.59375 
L 19.671875 43.109375 
L 48.578125 43.109375 
L 48.578125 34.8125 
L 19.671875 34.8125 
L 19.671875 0 
L 9.8125 0 
z
" id="BitstreamVeraSans-Roman-46"/>
      </defs>
      <g style="fill:#555555;" transform="translate(265.161373807 383.617158654)rotate(-30.0)scale(0.1 -0.1)">
       <use xlink:href="#BitstreamVeraSans-Roman-46"/>
       <use x="57.44140625" xlink:href="#BitstreamVeraSans-Roman-65"/>
       <use x="118.96484375" xlink:href="#BitstreamVeraSans-Roman-62"/>
       <use x="182.44140625" xlink:href="#BitstreamVeraSans-Roman-20"/>
       <use x="214.228515625" xlink:href="#BitstreamVeraSans-Roman-32"/>
       <use x="277.8515625" xlink:href="#BitstreamVeraSans-Roman-30"/>
       <use x="341.474609375" xlink:href="#BitstreamVeraSans-Roman-31"/>
       <use x="405.09765625" xlink:href="#BitstreamVeraSans-Roman-36"/>
      </g>
     </g>
    </g>
    <g id="xtick_5">
     <g id="line2d_13">
      <path clip-path="url(#paf4016fb26)" d="M 364.768831 345.6 
L 364.768831 43.2 
" style="fill:none;stroke:#ffffff;stroke-linecap:square;stroke-width:0.5;"/>
     </g>
     <g id="line2d_14">
      <g>
       <use style="fill:#555555;stroke:#555555;stroke-width:0.5;" x="364.768831169" xlink:href="#m78f4041950" y="345.6"/>
      </g>
     </g>
     <g id="line2d_15">
      <g>
       <use style="fill:#555555;stroke:#555555;stroke-width:0.5;" x="364.768831169" xlink:href="#me938ac7a98" y="43.2"/>
      </g>
     </g>
     <g id="text_5">
      <!-- Apr 2016 -->
      <defs>
       <path d="M 41.109375 46.296875 
Q 39.59375 47.171875 37.8125 47.578125 
Q 36.03125 48 33.890625 48 
Q 26.265625 48 22.1875 43.046875 
Q 18.109375 38.09375 18.109375 28.8125 
L 18.109375 0 
L 9.078125 0 
L 9.078125 54.6875 
L 18.109375 54.6875 
L 18.109375 46.1875 
Q 20.953125 51.171875 25.484375 53.578125 
Q 30.03125 56 36.53125 56 
Q 37.453125 56 38.578125 55.875 
Q 39.703125 55.765625 41.0625 55.515625 
z
" id="BitstreamVeraSans-Roman-72"/>
       <path d="M 18.109375 8.203125 
L 18.109375 -20.796875 
L 9.078125 -20.796875 
L 9.078125 54.6875 
L 18.109375 54.6875 
L 18.109375 46.390625 
Q 20.953125 51.265625 25.265625 53.625 
Q 29.59375 56 35.59375 56 
Q 45.5625 56 51.78125 48.09375 
Q 58.015625 40.1875 58.015625 27.296875 
Q 58.015625 14.40625 51.78125 6.484375 
Q 45.5625 -1.421875 35.59375 -1.421875 
Q 29.59375 -1.421875 25.265625 0.953125 
Q 20.953125 3.328125 18.109375 8.203125 
M 48.6875 27.296875 
Q 48.6875 37.203125 44.609375 42.84375 
Q 40.53125 48.484375 33.40625 48.484375 
Q 26.265625 48.484375 22.1875 42.84375 
Q 18.109375 37.203125 18.109375 27.296875 
Q 18.109375 17.390625 22.1875 11.75 
Q 26.265625 6.109375 33.40625 6.109375 
Q 40.53125 6.109375 44.609375 11.75 
Q 48.6875 17.390625 48.6875 27.296875 
" id="BitstreamVeraSans-Roman-70"/>
      </defs>
      <g style="fill:#555555;" transform="translate(323.954064421 383.144502404)rotate(-30.0)scale(0.1 -0.1)">
       <use xlink:href="#BitstreamVeraSans-Roman-41"/>
       <use x="68.408203125" xlink:href="#BitstreamVeraSans-Roman-70"/>
       <use x="131.884765625" xlink:href="#BitstreamVeraSans-Roman-72"/>
       <use x="172.998046875" xlink:href="#BitstreamVeraSans-Roman-20"/>
       <use x="204.78515625" xlink:href="#BitstreamVeraSans-Roman-32"/>
       <use x="268.408203125" xlink:href="#BitstreamVeraSans-Roman-30"/>
       <use x="332.03125" xlink:href="#BitstreamVeraSans-Roman-31"/>
       <use x="395.654296875" xlink:href="#BitstreamVeraSans-Roman-36"/>
      </g>
     </g>
    </g>
    <g id="xtick_6">
     <g id="line2d_16">
      <path clip-path="url(#paf4016fb26)" d="M 423.709091 345.6 
L 423.709091 43.2 
" style="fill:none;stroke:#ffffff;stroke-linecap:square;stroke-width:0.5;"/>
     </g>
     <g id="line2d_17">
      <g>
       <use style="fill:#555555;stroke:#555555;stroke-width:0.5;" x="423.709090909" xlink:href="#m78f4041950" y="345.6"/>
      </g>
     </g>
     <g id="line2d_18">
      <g>
       <use style="fill:#555555;stroke:#555555;stroke-width:0.5;" x="423.709090909" xlink:href="#me938ac7a98" y="43.2"/>
      </g>
     </g>
     <g id="text_6">
      <!-- Jun 2016 -->
      <defs>
       <path d="M 54.890625 33.015625 
L 54.890625 0 
L 45.90625 0 
L 45.90625 32.71875 
Q 45.90625 40.484375 42.875 44.328125 
Q 39.84375 48.1875 33.796875 48.1875 
Q 26.515625 48.1875 22.3125 43.546875 
Q 18.109375 38.921875 18.109375 30.90625 
L 18.109375 0 
L 9.078125 0 
L 9.078125 54.6875 
L 18.109375 54.6875 
L 18.109375 46.1875 
Q 21.34375 51.125 25.703125 53.5625 
Q 30.078125 56 35.796875 56 
Q 45.21875 56 50.046875 50.171875 
Q 54.890625 44.34375 54.890625 33.015625 
" id="BitstreamVeraSans-Roman-6e"/>
       <path d="M 9.8125 72.90625 
L 19.671875 72.90625 
L 19.671875 5.078125 
Q 19.671875 -8.109375 14.671875 -14.0625 
Q 9.671875 -20.015625 -1.421875 -20.015625 
L -5.171875 -20.015625 
L -5.171875 -11.71875 
L -2.09375 -11.71875 
Q 4.4375 -11.71875 7.125 -8.046875 
Q 9.8125 -4.390625 9.8125 5.078125 
z
" id="BitstreamVeraSans-Roman-4a"/>
      </defs>
      <g style="fill:#555555;" transform="translate(384.344916712 382.307002404)rotate(-30.0)scale(0.1 -0.1)">
       <use xlink:href="#BitstreamVeraSans-Roman-4a"/>
       <use x="29.4921875" xlink:href="#BitstreamVeraSans-Roman-75"/>
       <use x="92.87109375" xlink:href="#BitstreamVeraSans-Roman-6e"/>
       <use x="156.25" xlink:href="#BitstreamVeraSans-Roman-20"/>
       <use x="188.037109375" xlink:href="#BitstreamVeraSans-Roman-32"/>
       <use x="251.66015625" xlink:href="#BitstreamVeraSans-Roman-30"/>
       <use x="315.283203125" xlink:href="#BitstreamVeraSans-Roman-31"/>
       <use x="378.90625" xlink:href="#BitstreamVeraSans-Roman-36"/>
      </g>
     </g>
    </g>
    <g id="xtick_7">
     <g id="line2d_19">
      <path clip-path="url(#paf4016fb26)" d="M 482.649351 345.6 
L 482.649351 43.2 
" style="fill:none;stroke:#ffffff;stroke-linecap:square;stroke-width:0.5;"/>
     </g>
     <g id="line2d_20">
      <g>
       <use style="fill:#555555;stroke:#555555;stroke-width:0.5;" x="482.649350649" xlink:href="#m78f4041950" y="345.6"/>
      </g>
     </g>
     <g id="line2d_21">
      <g>
       <use style="fill:#555555;stroke:#555555;stroke-width:0.5;" x="482.649350649" xlink:href="#me938ac7a98" y="43.2"/>
      </g>
     </g>
     <g id="text_7">
      <!-- Aug 2016 -->
      <g style="fill:#555555;" transform="translate(439.906324213 384.257783654)rotate(-30.0)scale(0.1 -0.1)">
       <use xlink:href="#BitstreamVeraSans-Roman-41"/>
       <use x="68.408203125" xlink:href="#BitstreamVeraSans-Roman-75"/>
       <use x="131.787109375" xlink:href="#BitstreamVeraSans-Roman-67"/>
       <use x="195.263671875" xlink:href="#BitstreamVeraSans-Roman-20"/>
       <use x="227.05078125" xlink:href="#BitstreamVeraSans-Roman-32"/>
       <use x="290.673828125" xlink:href="#BitstreamVeraSans-Roman-30"/>
       <use x="354.296875" xlink:href="#BitstreamVeraSans-Roman-31"/>
       <use x="417.919921875" xlink:href="#BitstreamVeraSans-Roman-36"/>
      </g>
     </g>
    </g>
   </g>
   <g id="matplotlib.axis_2">
    <g id="ytick_1">
     <g id="line2d_22">
      <path clip-path="url(#paf4016fb26)" d="M 72 345.6 
L 518.4 345.6 
" style="fill:none;stroke:#ffffff;stroke-linecap:square;stroke-width:0.5;"/>
     </g>
     <g id="line2d_23">
      <defs>
       <path d="M 0 0 
L -4 0 
" id="m6c39dfb263" style="stroke:#555555;stroke-width:0.5;"/>
      </defs>
      <g>
       <use style="fill:#555555;stroke:#555555;stroke-width:0.5;" x="72.0" xlink:href="#m6c39dfb263" y="345.6"/>
      </g>
     </g>
     <g id="text_8">
      <!-- 0 -->
      <g style="fill:#555555;" transform="translate(57.6375 348.359375)scale(0.1 -0.1)">
       <use xlink:href="#BitstreamVeraSans-Roman-30"/>
      </g>
     </g>
    </g>
    <g id="ytick_2">
     <g id="line2d_24">
      <path clip-path="url(#paf4016fb26)" d="M 72 307.8 
L 518.4 307.8 
" style="fill:none;stroke:#ffffff;stroke-linecap:square;stroke-width:0.5;"/>
     </g>
     <g id="line2d_25">
      <g>
       <use style="fill:#555555;stroke:#555555;stroke-width:0.5;" x="72.0" xlink:href="#m6c39dfb263" y="307.8"/>
      </g>
     </g>
     <g id="text_9">
      <!-- 200 -->
      <g style="fill:#555555;" transform="translate(44.9125 310.559375)scale(0.1 -0.1)">
       <use xlink:href="#BitstreamVeraSans-Roman-32"/>
       <use x="63.623046875" xlink:href="#BitstreamVeraSans-Roman-30"/>
       <use x="127.24609375" xlink:href="#BitstreamVeraSans-Roman-30"/>
      </g>
     </g>
    </g>
    <g id="ytick_3">
     <g id="line2d_26">
      <path clip-path="url(#paf4016fb26)" d="M 72 270 
L 518.4 270 
" style="fill:none;stroke:#ffffff;stroke-linecap:square;stroke-width:0.5;"/>
     </g>
     <g id="line2d_27">
      <g>
       <use style="fill:#555555;stroke:#555555;stroke-width:0.5;" x="72.0" xlink:href="#m6c39dfb263" y="270.0"/>
      </g>
     </g>
     <g id="text_10">
      <!-- 400 -->
      <defs>
       <path d="M 37.796875 64.3125 
L 12.890625 25.390625 
L 37.796875 25.390625 
z
M 35.203125 72.90625 
L 47.609375 72.90625 
L 47.609375 25.390625 
L 58.015625 25.390625 
L 58.015625 17.1875 
L 47.609375 17.1875 
L 47.609375 0 
L 37.796875 0 
L 37.796875 17.1875 
L 4.890625 17.1875 
L 4.890625 26.703125 
z
" id="BitstreamVeraSans-Roman-34"/>
      </defs>
      <g style="fill:#555555;" transform="translate(44.9125 272.759375)scale(0.1 -0.1)">
       <use xlink:href="#BitstreamVeraSans-Roman-34"/>
       <use x="63.623046875" xlink:href="#BitstreamVeraSans-Roman-30"/>
       <use x="127.24609375" xlink:href="#BitstreamVeraSans-Roman-30"/>
      </g>
     </g>
    </g>
    <g id="ytick_4">
     <g id="line2d_28">
      <path clip-path="url(#paf4016fb26)" d="M 72 232.2 
L 518.4 232.2 
" style="fill:none;stroke:#ffffff;stroke-linecap:square;stroke-width:0.5;"/>
     </g>
     <g id="line2d_29">
      <g>
       <use style="fill:#555555;stroke:#555555;stroke-width:0.5;" x="72.0" xlink:href="#m6c39dfb263" y="232.2"/>
      </g>
     </g>
     <g id="text_11">
      <!-- 600 -->
      <g style="fill:#555555;" transform="translate(44.9125 234.959375)scale(0.1 -0.1)">
       <use xlink:href="#BitstreamVeraSans-Roman-36"/>
       <use x="63.623046875" xlink:href="#BitstreamVeraSans-Roman-30"/>
       <use x="127.24609375" xlink:href="#BitstreamVeraSans-Roman-30"/>
      </g>
     </g>
    </g>
    <g id="ytick_5">
     <g id="line2d_30">
      <path clip-path="url(#paf4016fb26)" d="M 72 194.4 
L 518.4 194.4 
" style="fill:none;stroke:#ffffff;stroke-linecap:square;stroke-width:0.5;"/>
     </g>
     <g id="line2d_31">
      <g>
       <use style="fill:#555555;stroke:#555555;stroke-width:0.5;" x="72.0" xlink:href="#m6c39dfb263" y="194.4"/>
      </g>
     </g>
     <g id="text_12">
      <!-- 800 -->
      <defs>
       <path d="M 31.78125 34.625 
Q 24.75 34.625 20.71875 30.859375 
Q 16.703125 27.09375 16.703125 20.515625 
Q 16.703125 13.921875 20.71875 10.15625 
Q 24.75 6.390625 31.78125 6.390625 
Q 38.8125 6.390625 42.859375 10.171875 
Q 46.921875 13.96875 46.921875 20.515625 
Q 46.921875 27.09375 42.890625 30.859375 
Q 38.875 34.625 31.78125 34.625 
M 21.921875 38.8125 
Q 15.578125 40.375 12.03125 44.71875 
Q 8.5 49.078125 8.5 55.328125 
Q 8.5 64.0625 14.71875 69.140625 
Q 20.953125 74.21875 31.78125 74.21875 
Q 42.671875 74.21875 48.875 69.140625 
Q 55.078125 64.0625 55.078125 55.328125 
Q 55.078125 49.078125 51.53125 44.71875 
Q 48 40.375 41.703125 38.8125 
Q 48.828125 37.15625 52.796875 32.3125 
Q 56.78125 27.484375 56.78125 20.515625 
Q 56.78125 9.90625 50.3125 4.234375 
Q 43.84375 -1.421875 31.78125 -1.421875 
Q 19.734375 -1.421875 13.25 4.234375 
Q 6.78125 9.90625 6.78125 20.515625 
Q 6.78125 27.484375 10.78125 32.3125 
Q 14.796875 37.15625 21.921875 38.8125 
M 18.3125 54.390625 
Q 18.3125 48.734375 21.84375 45.5625 
Q 25.390625 42.390625 31.78125 42.390625 
Q 38.140625 42.390625 41.71875 45.5625 
Q 45.3125 48.734375 45.3125 54.390625 
Q 45.3125 60.0625 41.71875 63.234375 
Q 38.140625 66.40625 31.78125 66.40625 
Q 25.390625 66.40625 21.84375 63.234375 
Q 18.3125 60.0625 18.3125 54.390625 
" id="BitstreamVeraSans-Roman-38"/>
      </defs>
      <g style="fill:#555555;" transform="translate(44.9125 197.159375)scale(0.1 -0.1)">
       <use xlink:href="#BitstreamVeraSans-Roman-38"/>
       <use x="63.623046875" xlink:href="#BitstreamVeraSans-Roman-30"/>
       <use x="127.24609375" xlink:href="#BitstreamVeraSans-Roman-30"/>
      </g>
     </g>
    </g>
    <g id="ytick_6">
     <g id="line2d_32">
      <path clip-path="url(#paf4016fb26)" d="M 72 156.6 
L 518.4 156.6 
" style="fill:none;stroke:#ffffff;stroke-linecap:square;stroke-width:0.5;"/>
     </g>
     <g id="line2d_33">
      <g>
       <use style="fill:#555555;stroke:#555555;stroke-width:0.5;" x="72.0" xlink:href="#m6c39dfb263" y="156.6"/>
      </g>
     </g>
     <g id="text_13">
      <!-- 1000 -->
      <g style="fill:#555555;" transform="translate(38.55 159.359375)scale(0.1 -0.1)">
       <use xlink:href="#BitstreamVeraSans-Roman-31"/>
       <use x="63.623046875" xlink:href="#BitstreamVeraSans-Roman-30"/>
       <use x="127.24609375" xlink:href="#BitstreamVeraSans-Roman-30"/>
       <use x="190.869140625" xlink:href="#BitstreamVeraSans-Roman-30"/>
      </g>
     </g>
    </g>
    <g id="ytick_7">
     <g id="line2d_34">
      <path clip-path="url(#paf4016fb26)" d="M 72 118.8 
L 518.4 118.8 
" style="fill:none;stroke:#ffffff;stroke-linecap:square;stroke-width:0.5;"/>
     </g>
     <g id="line2d_35">
      <g>
       <use style="fill:#555555;stroke:#555555;stroke-width:0.5;" x="72.0" xlink:href="#m6c39dfb263" y="118.8"/>
      </g>
     </g>
     <g id="text_14">
      <!-- 1200 -->
      <g style="fill:#555555;" transform="translate(38.55 121.559375)scale(0.1 -0.1)">
       <use xlink:href="#BitstreamVeraSans-Roman-31"/>
       <use x="63.623046875" xlink:href="#BitstreamVeraSans-Roman-32"/>
       <use x="127.24609375" xlink:href="#BitstreamVeraSans-Roman-30"/>
       <use x="190.869140625" xlink:href="#BitstreamVeraSans-Roman-30"/>
      </g>
     </g>
    </g>
    <g id="ytick_8">
     <g id="line2d_36">
      <path clip-path="url(#paf4016fb26)" d="M 72 81 
L 518.4 81 
" style="fill:none;stroke:#ffffff;stroke-linecap:square;stroke-width:0.5;"/>
     </g>
     <g id="line2d_37">
      <g>
       <use style="fill:#555555;stroke:#555555;stroke-width:0.5;" x="72.0" xlink:href="#m6c39dfb263" y="81.0"/>
      </g>
     </g>
     <g id="text_15">
      <!-- 1400 -->
      <g style="fill:#555555;" transform="translate(38.55 83.759375)scale(0.1 -0.1)">
       <use xlink:href="#BitstreamVeraSans-Roman-31"/>
       <use x="63.623046875" xlink:href="#BitstreamVeraSans-Roman-34"/>
       <use x="127.24609375" xlink:href="#BitstreamVeraSans-Roman-30"/>
       <use x="190.869140625" xlink:href="#BitstreamVeraSans-Roman-30"/>
      </g>
     </g>
    </g>
    <g id="ytick_9">
     <g id="line2d_38">
      <path clip-path="url(#paf4016fb26)" d="M 72 43.2 
L 518.4 43.2 
" style="fill:none;stroke:#ffffff;stroke-linecap:square;stroke-width:0.5;"/>
     </g>
     <g id="line2d_39">
      <g>
       <use style="fill:#555555;stroke:#555555;stroke-width:0.5;" x="72.0" xlink:href="#m6c39dfb263" y="43.2"/>
      </g>
     </g>
     <g id="text_16">
      <!-- 1600 -->
      <g style="fill:#555555;" transform="translate(38.55 45.959375)scale(0.1 -0.1)">
       <use xlink:href="#BitstreamVeraSans-Roman-31"/>
       <use x="63.623046875" xlink:href="#BitstreamVeraSans-Roman-36"/>
       <use x="127.24609375" xlink:href="#BitstreamVeraSans-Roman-30"/>
       <use x="190.869140625" xlink:href="#BitstreamVeraSans-Roman-30"/>
      </g>
     </g>
    </g>
    <g id="text_17">
     <!-- cumulative closed, cumulative all -->
     <defs>
      <path d="M 52 44.1875 
Q 55.375 50.25 60.0625 53.125 
Q 64.75 56 71.09375 56 
Q 79.640625 56 84.28125 50.015625 
Q 88.921875 44.046875 88.921875 33.015625 
L 88.921875 0 
L 79.890625 0 
L 79.890625 32.71875 
Q 79.890625 40.578125 77.09375 44.375 
Q 74.3125 48.1875 68.609375 48.1875 
Q 61.625 48.1875 57.5625 43.546875 
Q 53.515625 38.921875 53.515625 30.90625 
L 53.515625 0 
L 44.484375 0 
L 44.484375 32.71875 
Q 44.484375 40.625 41.703125 44.40625 
Q 38.921875 48.1875 33.109375 48.1875 
Q 26.21875 48.1875 22.15625 43.53125 
Q 18.109375 38.875 18.109375 30.90625 
L 18.109375 0 
L 9.078125 0 
L 9.078125 54.6875 
L 18.109375 54.6875 
L 18.109375 46.1875 
Q 21.1875 51.21875 25.484375 53.609375 
Q 29.78125 56 35.6875 56 
Q 41.65625 56 45.828125 52.96875 
Q 50 49.953125 52 44.1875 
" id="BitstreamVeraSans-Roman-6d"/>
      <path d="M 11.71875 12.40625 
L 22.015625 12.40625 
L 22.015625 4 
L 14.015625 -11.625 
L 7.71875 -11.625 
L 11.71875 4 
z
" id="BitstreamVeraSans-Roman-2c"/>
      <path d="M 9.421875 54.6875 
L 18.40625 54.6875 
L 18.40625 0 
L 9.421875 0 
z
M 9.421875 75.984375 
L 18.40625 75.984375 
L 18.40625 64.59375 
L 9.421875 64.59375 
z
" id="BitstreamVeraSans-Roman-69"/>
      <path d="M 34.28125 27.484375 
Q 23.390625 27.484375 19.1875 25 
Q 14.984375 22.515625 14.984375 16.5 
Q 14.984375 11.71875 18.140625 8.90625 
Q 21.296875 6.109375 26.703125 6.109375 
Q 34.1875 6.109375 38.703125 11.40625 
Q 43.21875 16.703125 43.21875 25.484375 
L 43.21875 27.484375 
z
M 52.203125 31.203125 
L 52.203125 0 
L 43.21875 0 
L 43.21875 8.296875 
Q 40.140625 3.328125 35.546875 0.953125 
Q 30.953125 -1.421875 24.3125 -1.421875 
Q 15.921875 -1.421875 10.953125 3.296875 
Q 6 8.015625 6 15.921875 
Q 6 25.140625 12.171875 29.828125 
Q 18.359375 34.515625 30.609375 34.515625 
L 43.21875 34.515625 
L 43.21875 35.40625 
Q 43.21875 41.609375 39.140625 45 
Q 35.0625 48.390625 27.6875 48.390625 
Q 23 48.390625 18.546875 47.265625 
Q 14.109375 46.140625 10.015625 43.890625 
L 10.015625 52.203125 
Q 14.9375 54.109375 19.578125 55.046875 
Q 24.21875 56 28.609375 56 
Q 40.484375 56 46.34375 49.84375 
Q 52.203125 43.703125 52.203125 31.203125 
" id="BitstreamVeraSans-Roman-61"/>
      <path d="M 44.28125 53.078125 
L 44.28125 44.578125 
Q 40.484375 46.53125 36.375 47.5 
Q 32.28125 48.484375 27.875 48.484375 
Q 21.1875 48.484375 17.84375 46.4375 
Q 14.5 44.390625 14.5 40.28125 
Q 14.5 37.15625 16.890625 35.375 
Q 19.28125 33.59375 26.515625 31.984375 
L 29.59375 31.296875 
Q 39.15625 29.25 43.1875 25.515625 
Q 47.21875 21.78125 47.21875 15.09375 
Q 47.21875 7.46875 41.1875 3.015625 
Q 35.15625 -1.421875 24.609375 -1.421875 
Q 20.21875 -1.421875 15.453125 -0.5625 
Q 10.6875 0.296875 5.421875 2 
L 5.421875 11.28125 
Q 10.40625 8.6875 15.234375 7.390625 
Q 20.0625 6.109375 24.8125 6.109375 
Q 31.15625 6.109375 34.5625 8.28125 
Q 37.984375 10.453125 37.984375 14.40625 
Q 37.984375 18.0625 35.515625 20.015625 
Q 33.0625 21.96875 24.703125 23.78125 
L 21.578125 24.515625 
Q 13.234375 26.265625 9.515625 29.90625 
Q 5.8125 33.546875 5.8125 39.890625 
Q 5.8125 47.609375 11.28125 51.796875 
Q 16.75 56 26.8125 56 
Q 31.78125 56 36.171875 55.265625 
Q 40.578125 54.546875 44.28125 53.078125 
" id="BitstreamVeraSans-Roman-73"/>
      <path d="M 45.40625 46.390625 
L 45.40625 75.984375 
L 54.390625 75.984375 
L 54.390625 0 
L 45.40625 0 
L 45.40625 8.203125 
Q 42.578125 3.328125 38.25 0.953125 
Q 33.9375 -1.421875 27.875 -1.421875 
Q 17.96875 -1.421875 11.734375 6.484375 
Q 5.515625 14.40625 5.515625 27.296875 
Q 5.515625 40.1875 11.734375 48.09375 
Q 17.96875 56 27.875 56 
Q 33.9375 56 38.25 53.625 
Q 42.578125 51.265625 45.40625 46.390625 
M 14.796875 27.296875 
Q 14.796875 17.390625 18.875 11.75 
Q 22.953125 6.109375 30.078125 6.109375 
Q 37.203125 6.109375 41.296875 11.75 
Q 45.40625 17.390625 45.40625 27.296875 
Q 45.40625 37.203125 41.296875 42.84375 
Q 37.203125 48.484375 30.078125 48.484375 
Q 22.953125 48.484375 18.875 42.84375 
Q 14.796875 37.203125 14.796875 27.296875 
" id="BitstreamVeraSans-Roman-64"/>
      <path d="M 9.421875 75.984375 
L 18.40625 75.984375 
L 18.40625 0 
L 9.421875 0 
z
" id="BitstreamVeraSans-Roman-6c"/>
      <path d="M 30.609375 48.390625 
Q 23.390625 48.390625 19.1875 42.75 
Q 14.984375 37.109375 14.984375 27.296875 
Q 14.984375 17.484375 19.15625 11.84375 
Q 23.34375 6.203125 30.609375 6.203125 
Q 37.796875 6.203125 41.984375 11.859375 
Q 46.1875 17.53125 46.1875 27.296875 
Q 46.1875 37.015625 41.984375 42.703125 
Q 37.796875 48.390625 30.609375 48.390625 
M 30.609375 56 
Q 42.328125 56 49.015625 48.375 
Q 55.71875 40.765625 55.71875 27.296875 
Q 55.71875 13.875 49.015625 6.21875 
Q 42.328125 -1.421875 30.609375 -1.421875 
Q 18.84375 -1.421875 12.171875 6.21875 
Q 5.515625 13.875 5.515625 27.296875 
Q 5.515625 40.765625 12.171875 48.375 
Q 18.84375 56 30.609375 56 
" id="BitstreamVeraSans-Roman-6f"/>
      <path d="M 2.984375 54.6875 
L 12.5 54.6875 
L 29.59375 8.796875 
L 46.6875 54.6875 
L 56.203125 54.6875 
L 35.6875 0 
L 23.484375 0 
z
" id="BitstreamVeraSans-Roman-76"/>
     </defs>
     <g style="fill:#555555;" transform="translate(31.054375 295.010625)rotate(-90.0)scale(0.12 -0.12)">
      <use xlink:href="#BitstreamVeraSans-Roman-63"/>
      <use x="54.98046875" xlink:href="#BitstreamVeraSans-Roman-75"/>
      <use x="118.359375" xlink:href="#BitstreamVeraSans-Roman-6d"/>
      <use x="215.771484375" xlink:href="#BitstreamVeraSans-Roman-75"/>
      <use x="279.150390625" xlink:href="#BitstreamVeraSans-Roman-6c"/>
      <use x="306.93359375" xlink:href="#BitstreamVeraSans-Roman-61"/>
      <use x="368.212890625" xlink:href="#BitstreamVeraSans-Roman-74"/>
      <use x="407.421875" xlink:href="#BitstreamVeraSans-Roman-69"/>
      <use x="435.205078125" xlink:href="#BitstreamVeraSans-Roman-76"/>
      <use x="494.384765625" xlink:href="#BitstreamVeraSans-Roman-65"/>
      <use x="555.908203125" xlink:href="#BitstreamVeraSans-Roman-20"/>
      <use x="587.6953125" xlink:href="#BitstreamVeraSans-Roman-63"/>
      <use x="642.67578125" xlink:href="#BitstreamVeraSans-Roman-6c"/>
      <use x="670.458984375" xlink:href="#BitstreamVeraSans-Roman-6f"/>
      <use x="731.640625" xlink:href="#BitstreamVeraSans-Roman-73"/>
      <use x="783.740234375" xlink:href="#BitstreamVeraSans-Roman-65"/>
      <use x="845.263671875" xlink:href="#BitstreamVeraSans-Roman-64"/>
      <use x="908.740234375" xlink:href="#BitstreamVeraSans-Roman-2c"/>
      <use x="940.52734375" xlink:href="#BitstreamVeraSans-Roman-20"/>
      <use x="972.314453125" xlink:href="#BitstreamVeraSans-Roman-63"/>
      <use x="1027.294921875" xlink:href="#BitstreamVeraSans-Roman-75"/>
      <use x="1090.673828125" xlink:href="#BitstreamVeraSans-Roman-6d"/>
      <use x="1188.0859375" xlink:href="#BitstreamVeraSans-Roman-75"/>
      <use x="1251.46484375" xlink:href="#BitstreamVeraSans-Roman-6c"/>
      <use x="1279.248046875" xlink:href="#BitstreamVeraSans-Roman-61"/>
      <use x="1340.52734375" xlink:href="#BitstreamVeraSans-Roman-74"/>
      <use x="1379.736328125" xlink:href="#BitstreamVeraSans-Roman-69"/>
      <use x="1407.51953125" xlink:href="#BitstreamVeraSans-Roman-76"/>
      <use x="1466.69921875" xlink:href="#BitstreamVeraSans-Roman-65"/>
      <use x="1528.22265625" xlink:href="#BitstreamVeraSans-Roman-20"/>
      <use x="1560.009765625" xlink:href="#BitstreamVeraSans-Roman-61"/>
      <use x="1621.2890625" xlink:href="#BitstreamVeraSans-Roman-6c"/>
      <use x="1649.072265625" xlink:href="#BitstreamVeraSans-Roman-6c"/>
     </g>
    </g>
   </g>
   <g id="line2d_40">
    <path clip-path="url(#paf4016fb26)" d="M 72 343.899 
L 72.966234 343.521 
L 73.932468 342.765 
L 75.864935 342.576 
L 76.831169 340.308 
L 77.797403 339.552 
L 78.763636 339.363 
L 79.72987 338.418 
L 80.696104 338.04 
L 81.662338 337.473 
L 82.628571 336.717 
L 84.561039 334.449 
L 85.527273 332.748 
L 86.493506 332.37 
L 87.45974 331.614 
L 88.425974 331.047 
L 89.392208 329.913 
L 90.358442 329.157 
L 91.324675 327.078 
L 92.290909 326.133 
L 94.223377 324.999 
L 95.18961 324.81 
L 96.155844 323.298 
L 97.122078 322.92 
L 98.088312 320.841 
L 99.054545 317.061 
L 100.020779 315.927 
L 100.987013 315.36 
L 102.919481 314.982 
L 104.851948 313.47 
L 105.818182 312.147 
L 106.784416 311.202 
L 107.750649 310.635 
L 108.716883 309.879 
L 109.683117 309.312 
L 111.615584 307.422 
L 112.581818 305.532 
L 113.548052 304.965 
L 114.514286 304.776 
L 115.480519 303.831 
L 116.446753 303.264 
L 117.412987 302.508 
L 118.379221 302.13 
L 121.277922 297.783 
L 123.21039 297.405 
L 124.176623 296.082 
L 125.142857 295.515 
L 126.109091 294.57 
L 129.007792 290.034 
L 129.974026 289.467 
L 130.94026 288.711 
L 131.906494 287.577 
L 132.872727 286.254 
L 133.838961 285.309 
L 134.805195 285.12 
L 135.771429 284.742 
L 136.737662 284.175 
L 137.703896 283.797 
L 139.636364 282.663 
L 140.602597 281.718 
L 141.568831 280.206 
L 143.501299 279.828 
L 144.467532 279.072 
L 145.433766 278.505 
L 146.4 278.127 
L 147.366234 277.56 
L 148.332468 277.182 
L 150.264935 276.993 
L 151.231169 276.048 
L 152.197403 274.725 
L 153.163636 274.158 
L 155.096104 273.402 
L 157.994805 271.701 
L 158.961039 270.567 
L 159.927273 269.811 
L 160.893506 268.488 
L 161.85974 267.921 
L 162.825974 266.976 
L 163.792208 265.653 
L 165.724675 264.141 
L 166.690909 263.196 
L 167.657143 262.44 
L 169.58961 261.684 
L 170.555844 261.495 
L 171.522078 260.55 
L 172.488312 259.983 
L 173.454545 258.849 
L 174.420779 258.282 
L 175.387013 257.148 
L 176.353247 256.959 
L 178.285714 256.203 
L 179.251948 254.124 
L 180.218182 253.368 
L 181.184416 252.423 
L 182.150649 251.856 
L 184.083117 251.478 
L 186.015584 250.722 
L 187.948052 249.21 
L 188.914286 248.265 
L 189.880519 247.887 
L 190.846753 247.32 
L 192.779221 246.564 
L 193.745455 246.375 
L 194.711688 245.997 
L 195.677922 244.674 
L 196.644156 243.54 
L 198.576623 242.784 
L 199.542857 241.272 
L 200.509091 240.894 
L 201.475325 240.138 
L 202.441558 239.949 
L 203.407792 238.815 
L 204.374026 237.87 
L 205.34026 237.492 
L 206.306494 236.925 
L 207.272727 235.602 
L 208.238961 235.224 
L 209.205195 234.657 
L 210.171429 234.468 
L 211.137662 234.09 
L 213.07013 232.578 
L 214.036364 232.389 
L 215.002597 231.444 
L 215.968831 230.121 
L 217.901299 229.554 
L 220.8 227.853 
L 222.732468 227.097 
L 223.698701 226.152 
L 225.631169 225.774 
L 228.52987 223.506 
L 229.496104 222.939 
L 230.462338 222.561 
L 231.428571 222.372 
L 232.394805 221.994 
L 233.361039 220.86 
L 234.327273 220.293 
L 236.25974 217.269 
L 237.225974 217.08 
L 238.192208 216.702 
L 239.158442 215.379 
L 240.124675 214.434 
L 242.057143 212.922 
L 243.023377 212.544 
L 243.98961 212.355 
L 244.955844 211.788 
L 245.922078 211.032 
L 246.888312 210.654 
L 248.820779 210.276 
L 249.787013 209.709 
L 251.719481 208.953 
L 252.685714 208.386 
L 253.651948 207.252 
L 254.618182 207.063 
L 255.584416 206.685 
L 256.550649 205.74 
L 257.516883 205.551 
L 258.483117 204.795 
L 260.415584 204.039 
L 261.381818 203.472 
L 262.348052 202.716 
L 263.314286 202.149 
L 264.280519 201.96 
L 265.246753 201.204 
L 266.212987 200.259 
L 268.145455 199.881 
L 269.111688 199.503 
L 272.01039 199.125 
L 272.976623 198.747 
L 277.807792 197.802 
L 278.774026 197.424 
L 279.74026 196.857 
L 284.571429 195.534 
L 285.537662 195.345 
L 286.503896 194.4 
L 287.47013 193.833 
L 288.436364 193.644 
L 289.402597 192.888 
L 290.368831 192.51 
L 291.335065 192.321 
L 292.301299 190.998 
L 293.267532 190.242 
L 296.166234 185.706 
L 297.132468 184.95 
L 298.098701 184.572 
L 300.031169 184.194 
L 301.963636 183.06 
L 302.92987 181.737 
L 303.896104 180.792 
L 304.862338 180.414 
L 305.828571 179.28 
L 306.794805 178.524 
L 307.761039 178.146 
L 309.693506 176.634 
L 310.65974 176.067 
L 312.592208 175.689 
L 313.558442 174.933 
L 315.490909 173.799 
L 316.457143 173.421 
L 317.423377 172.476 
L 318.38961 171.72 
L 319.355844 171.342 
L 320.322078 170.019 
L 321.288312 168.885 
L 322.254545 168.129 
L 323.220779 166.995 
L 324.187013 166.428 
L 326.119481 164.916 
L 328.051948 162.27 
L 329.018182 161.325 
L 329.984416 160.191 
L 330.950649 159.624 
L 331.916883 159.246 
L 333.849351 158.679 
L 335.781818 157.545 
L 336.748052 157.167 
L 337.714286 156.6 
L 339.646753 156.222 
L 340.612987 155.655 
L 341.579221 155.277 
L 342.545455 154.521 
L 344.477922 154.143 
L 346.41039 153.576 
L 348.342857 152.442 
L 350.275325 151.686 
L 351.241558 150.741 
L 352.207792 150.363 
L 353.174026 149.796 
L 356.072727 149.229 
L 357.038961 148.095 
L 358.005195 147.717 
L 359.937662 147.339 
L 360.903896 146.772 
L 361.87013 146.583 
L 362.836364 146.016 
L 363.802597 145.26 
L 364.768831 144.126 
L 365.735065 143.559 
L 367.667532 142.803 
L 368.633766 142.614 
L 370.566234 141.48 
L 372.498701 139.59 
L 373.464935 139.401 
L 374.431169 139.023 
L 375.397403 138.456 
L 376.363636 137.511 
L 377.32987 136.944 
L 378.296104 135.999 
L 379.262338 135.621 
L 380.228571 134.676 
L 381.194805 134.487 
L 382.161039 133.731 
L 384.093506 133.353 
L 385.05974 132.597 
L 386.992208 132.03 
L 388.924675 130.896 
L 390.857143 130.518 
L 392.78961 129.951 
L 393.755844 129.195 
L 394.722078 128.25 
L 395.688312 128.061 
L 396.654545 127.494 
L 398.587013 126.738 
L 399.553247 125.982 
L 401.485714 125.604 
L 402.451948 124.848 
L 403.418182 124.281 
L 404.384416 123.903 
L 405.350649 123.714 
L 406.316883 122.958 
L 407.283117 122.769 
L 408.249351 122.013 
L 409.215584 121.824 
L 410.181818 121.068 
L 411.148052 120.501 
L 412.114286 119.556 
L 413.080519 119.178 
L 414.046753 118.989 
L 415.979221 118.044 
L 416.945455 116.91 
L 417.911688 115.587 
L 419.844156 113.697 
L 420.81039 113.508 
L 421.776623 112.563 
L 422.742857 111.051 
L 423.709091 110.106 
L 425.641558 108.972 
L 426.607792 108.594 
L 427.574026 107.838 
L 428.54026 107.271 
L 430.472727 105.759 
L 431.438961 104.436 
L 432.405195 103.68 
L 433.371429 103.302 
L 434.337662 103.113 
L 435.303896 102.735 
L 436.27013 101.979 
L 437.236364 101.034 
L 438.202597 100.656 
L 441.101299 100.089 
L 442.067532 99.522 
L 443.033766 99.333 
L 444 98.955 
L 444.966234 98.388 
L 447.864935 97.821 
L 448.831169 97.443 
L 449.797403 96.12 
L 451.72987 95.364 
L 452.696104 95.175 
L 455.594805 93.474 
L 457.527273 91.584 
L 458.493506 91.206 
L 459.45974 91.017 
L 462.358442 89.316 
L 463.324675 88.56 
L 464.290909 87.993 
L 465.257143 86.859 
L 466.223377 86.67 
L 467.18961 86.292 
L 469.122078 85.914 
L 470.088312 85.347 
L 471.054545 84.402 
L 472.987013 84.024 
L 473.953247 83.646 
L 475.885714 83.268 
L 476.851948 82.134 
L 478.784416 81.756 
L 479.750649 80.811 
L 481.683117 80.055 
L 482.649351 78.921 
L 483.615584 76.842 
L 484.581818 75.141 
L 485.548052 74.763 
L 486.514286 73.818 
L 487.480519 73.44 
L 488.446753 73.251 
L 489.412987 72.117 
L 490.379221 71.928 
L 491.345455 71.55 
L 493.277922 70.038 
L 494.244156 69.849 
L 495.21039 69.282 
L 496.176623 69.093 
L 497.142857 68.148 
L 499.075325 67.014 
L 500.041558 66.258 
L 501.007792 65.88 
L 501.974026 64.935 
L 502.94026 64.746 
L 503.906494 63.99 
L 506.805195 62.856 
L 507.771429 62.289 
L 509.703896 61.344 
L 510.67013 61.155 
L 511.636364 60.021 
L 512.602597 58.698 
L 513.568831 58.509 
L 514.535065 57.375 
L 515.501299 57.186 
L 516.467532 56.808 
L 518.4 56.43 
L 518.4 56.43 
" style="fill:none;stroke:#e24a33;stroke-linecap:square;"/>
   </g>
   <g id="line2d_41">
    <path clip-path="url(#paf4016fb26)" d="M 72 345.222 
L 75.864935 344.466 
L 76.831169 342.954 
L 77.797403 342.198 
L 79.72987 341.064 
L 81.662338 340.686 
L 82.628571 339.741 
L 83.594805 339.363 
L 84.561039 339.174 
L 86.493506 335.961 
L 87.45974 335.772 
L 88.425974 335.394 
L 90.358442 334.26 
L 91.324675 334.071 
L 92.290909 333.315 
L 93.257143 332.37 
L 94.223377 331.803 
L 95.18961 331.614 
L 98.088312 330.858 
L 99.054545 327.645 
L 100.020779 327.456 
L 100.987013 326.7 
L 102.919481 326.322 
L 103.885714 325.944 
L 104.851948 325.188 
L 105.818182 324.81 
L 106.784416 324.054 
L 108.716883 322.92 
L 111.615584 321.786 
L 112.581818 319.896 
L 113.548052 319.329 
L 118.379221 318.951 
L 119.345455 317.25 
L 120.311688 313.281 
L 121.277922 311.58 
L 125.142857 310.257 
L 126.109091 308.934 
L 128.041558 307.611 
L 130.94026 306.855 
L 131.906494 306.099 
L 132.872727 304.965 
L 133.838961 303.453 
L 139.636364 302.886 
L 141.568831 302.13 
L 142.535065 301.941 
L 143.501299 300.807 
L 144.467532 300.429 
L 145.433766 300.24 
L 146.4 299.862 
L 151.231169 298.35 
L 152.197403 297.783 
L 153.163636 297.405 
L 154.12987 296.649 
L 155.096104 295.704 
L 157.028571 295.326 
L 157.994805 294.948 
L 158.961039 293.814 
L 159.927273 293.625 
L 160.893506 293.058 
L 161.85974 292.869 
L 162.825974 290.034 
L 164.758442 287.766 
L 166.690909 286.254 
L 168.623377 285.876 
L 172.488312 285.498 
L 175.387013 284.742 
L 178.285714 283.419 
L 179.251948 282.285 
L 180.218182 281.34 
L 182.150649 280.962 
L 184.083117 280.773 
L 186.015584 280.395 
L 186.981818 279.261 
L 187.948052 278.316 
L 189.880519 277.56 
L 191.812987 277.182 
L 192.779221 276.426 
L 193.745455 276.048 
L 195.677922 275.103 
L 198.576623 274.914 
L 199.542857 274.158 
L 200.509091 273.024 
L 201.475325 272.835 
L 204.374026 272.457 
L 205.34026 271.89 
L 206.306494 271.701 
L 207.272727 271.134 
L 208.238961 270.945 
L 209.205195 269.055 
L 211.137662 268.299 
L 212.103896 268.11 
L 213.07013 267.732 
L 215.002597 267.354 
L 215.968831 266.787 
L 217.901299 266.409 
L 218.867532 264.141 
L 219.833766 263.196 
L 225.631169 262.818 
L 226.597403 262.251 
L 227.563636 261.873 
L 228.52987 260.739 
L 229.496104 259.794 
L 231.428571 259.605 
L 233.361039 259.227 
L 236.25974 258.093 
L 238.192208 257.904 
L 239.158442 256.77 
L 241.090909 256.014 
L 242.057143 254.502 
L 243.023377 253.746 
L 243.98961 253.368 
L 246.888312 252.801 
L 251.719481 252.612 
L 254.618182 252.045 
L 255.584416 250.722 
L 262.348052 249.399 
L 267.179221 249.21 
L 268.145455 247.887 
L 269.111688 247.698 
L 278.774026 247.32 
L 279.74026 247.131 
L 286.503896 246.375 
L 287.47013 244.863 
L 290.368831 244.485 
L 291.335065 244.296 
L 292.301299 243.918 
L 293.267532 243.162 
L 294.233766 242.595 
L 295.2 241.65 
L 296.166234 241.083 
L 297.132468 240.705 
L 299.064935 240.138 
L 300.031169 238.815 
L 300.997403 237.303 
L 301.963636 235.035 
L 302.92987 234.09 
L 303.896104 232.956 
L 304.862338 232.578 
L 305.828571 232.011 
L 307.761039 230.499 
L 308.727273 230.121 
L 309.693506 229.365 
L 314.524675 228.42 
L 315.490909 226.908 
L 316.457143 224.829 
L 317.423377 224.262 
L 320.322078 223.128 
L 321.288312 221.994 
L 322.254545 221.616 
L 323.220779 220.86 
L 325.153247 220.104 
L 326.119481 219.915 
L 327.085714 216.702 
L 328.051948 215.19 
L 329.018182 215.001 
L 331.916883 214.623 
L 332.883117 214.434 
L 334.815584 213.867 
L 337.714286 213.489 
L 342.545455 212.544 
L 346.41039 212.355 
L 348.342857 211.977 
L 357.038961 211.032 
L 358.005195 210.843 
L 360.903896 210.654 
L 361.87013 210.465 
L 364.768831 208.764 
L 365.735065 208.575 
L 366.701299 208.197 
L 367.667532 208.008 
L 368.633766 207.63 
L 369.6 207.063 
L 371.532468 206.307 
L 373.464935 206.118 
L 375.397403 204.984 
L 377.32987 204.228 
L 378.296104 200.448 
L 380.228571 199.692 
L 381.194805 196.29 
L 382.161039 194.589 
L 384.093506 193.644 
L 385.05974 190.998 
L 386.025974 190.053 
L 386.992208 189.675 
L 387.958442 187.785 
L 388.924675 187.596 
L 390.857143 186.84 
L 391.823377 185.706 
L 392.78961 185.517 
L 393.755844 184.95 
L 394.722078 184.761 
L 395.688312 184.194 
L 396.654545 182.871 
L 397.620779 182.304 
L 398.587013 181.926 
L 406.316883 180.414 
L 408.249351 180.225 
L 409.215584 179.658 
L 410.181818 179.28 
L 411.148052 179.091 
L 412.114286 177.957 
L 416.945455 176.445 
L 417.911688 175.311 
L 419.844156 174.933 
L 420.81039 174.555 
L 421.776623 173.421 
L 422.742857 172.665 
L 423.709091 172.476 
L 425.641558 171.72 
L 426.607792 171.531 
L 427.574026 170.964 
L 428.54026 170.775 
L 429.506494 169.452 
L 430.472727 168.885 
L 431.438961 167.751 
L 432.405195 167.184 
L 434.337662 166.806 
L 436.27013 164.916 
L 437.236364 164.349 
L 438.202597 162.837 
L 440.135065 162.648 
L 442.067532 162.27 
L 443.033766 161.703 
L 445.932468 161.325 
L 446.898701 161.136 
L 447.864935 160.191 
L 449.797403 159.813 
L 450.763636 159.435 
L 451.72987 158.679 
L 454.628571 158.301 
L 455.594805 157.923 
L 457.527273 156.978 
L 458.493506 156.789 
L 459.45974 156.411 
L 463.324675 155.844 
L 465.257143 155.277 
L 466.223377 154.71 
L 468.155844 154.521 
L 469.122078 154.143 
L 472.020779 151.875 
L 472.987013 150.741 
L 473.953247 150.363 
L 474.919481 150.174 
L 475.885714 149.418 
L 476.851948 149.04 
L 477.818182 148.473 
L 478.784416 148.284 
L 479.750649 147.906 
L 481.683117 147.717 
L 482.649351 147.15 
L 483.615584 146.961 
L 484.581818 146.205 
L 485.548052 145.26 
L 486.514286 144.126 
L 487.480519 143.748 
L 490.379221 143.37 
L 492.311688 142.992 
L 494.244156 142.803 
L 495.21039 142.425 
L 496.176623 142.236 
L 497.142857 141.669 
L 498.109091 140.913 
L 500.041558 139.779 
L 502.94026 138.456 
L 504.872727 138.267 
L 505.838961 137.889 
L 509.703896 137.7 
L 510.67013 137.133 
L 511.636364 135.432 
L 512.602597 134.676 
L 513.568831 134.487 
L 516.467532 134.109 
L 516.467532 134.109 
" style="fill:none;stroke:#348abd;stroke-linecap:square;"/>
   </g>
   <g id="patch_3">
    <path d="M 518.4 345.6 
L 518.4 43.2 
" style="fill:none;stroke:#ffffff;stroke-linecap:square;stroke-linejoin:miter;"/>
   </g>
   <g id="patch_4">
    <path d="M 72 345.6 
L 518.4 345.6 
" style="fill:none;stroke:#ffffff;stroke-linecap:square;stroke-linejoin:miter;"/>
   </g>
   <g id="patch_5">
    <path d="M 72 43.2 
L 518.4 43.2 
" style="fill:none;stroke:#ffffff;stroke-linecap:square;stroke-linejoin:miter;"/>
   </g>
   <g id="patch_6">
    <path d="M 72 345.6 
L 72 43.2 
" style="fill:none;stroke:#ffffff;stroke-linecap:square;stroke-linejoin:miter;"/>
   </g>
   <g id="text_18">
    <!-- Issues -->
    <defs>
     <path d="M 9.8125 72.90625 
L 19.671875 72.90625 
L 19.671875 0 
L 9.8125 0 
z
" id="BitstreamVeraSans-Roman-49"/>
    </defs>
    <g transform="translate(272.8305 38.2)scale(0.144 -0.144)">
     <use xlink:href="#BitstreamVeraSans-Roman-49"/>
     <use x="29.4921875" xlink:href="#BitstreamVeraSans-Roman-73"/>
     <use x="81.591796875" xlink:href="#BitstreamVeraSans-Roman-73"/>
     <use x="133.69140625" xlink:href="#BitstreamVeraSans-Roman-75"/>
     <use x="197.0703125" xlink:href="#BitstreamVeraSans-Roman-65"/>
     <use x="258.59375" xlink:href="#BitstreamVeraSans-Roman-73"/>
    </g>
   </g>
   <g id="legend_1">
    <g id="patch_7">
     <path d="M 78 88.0275 
L 159.7275 88.0275 
L 159.7275 49.2 
L 78 49.2 
z
" style="fill:#e5e5e5;stroke:#ffffff;stroke-linejoin:miter;stroke-width:0.5;"/>
    </g>
    <g id="line2d_42">
     <path d="M 86.4 58.918125 
L 103.2 58.918125 
" style="fill:none;stroke:#e24a33;stroke-linecap:square;"/>
    </g>
    <g id="line2d_43"/>
    <g id="text_19">
     <!-- all -->
     <g transform="translate(116.4 63.118125)scale(0.12 -0.12)">
      <use xlink:href="#BitstreamVeraSans-Roman-61"/>
      <use x="61.279296875" xlink:href="#BitstreamVeraSans-Roman-6c"/>
      <use x="89.0625" xlink:href="#BitstreamVeraSans-Roman-6c"/>
     </g>
    </g>
    <g id="line2d_44">
     <path d="M 86.4 76.531875 
L 103.2 76.531875 
" style="fill:none;stroke:#348abd;stroke-linecap:square;"/>
    </g>
    <g id="line2d_45"/>
    <g id="text_20">
     <!-- closed -->
     <g transform="translate(116.4 80.731875)scale(0.12 -0.12)">
      <use xlink:href="#BitstreamVeraSans-Roman-63"/>
      <use x="54.98046875" xlink:href="#BitstreamVeraSans-Roman-6c"/>
      <use x="82.763671875" xlink:href="#BitstreamVeraSans-Roman-6f"/>
      <use x="143.9453125" xlink:href="#BitstreamVeraSans-Roman-73"/>
      <use x="196.044921875" xlink:href="#BitstreamVeraSans-Roman-65"/>
      <use x="257.568359375" xlink:href="#BitstreamVeraSans-Roman-64"/>
     </g>
    </g>
   </g>
  </g>
  <g id="axes_2">
   <g id="matplotlib.axis_3">
    <g id="ytick_10">
     <g id="line2d_46">
      <path clip-path="url(#paf4016fb26)" d="M 72 345.6 
L 518.4 345.6 
" style="fill:none;stroke:#ffffff;stroke-linecap:square;stroke-width:0.5;"/>
     </g>
     <g id="line2d_47">
      <defs>
       <path d="M 0 0 
L 4 0 
" id="mad065a4e8c" style="stroke:#555555;stroke-width:0.5;"/>
      </defs>
      <g>
       <use style="fill:#555555;stroke:#555555;stroke-width:0.5;" x="518.4" xlink:href="#mad065a4e8c" y="345.6"/>
      </g>
     </g>
     <g id="text_21">
      <!-- 0 -->
      <g style="fill:#555555;" transform="translate(526.4 348.359375)scale(0.1 -0.1)">
       <use xlink:href="#BitstreamVeraSans-Roman-30"/>
      </g>
     </g>
    </g>
    <g id="ytick_11">
     <g id="line2d_48">
      <path clip-path="url(#paf4016fb26)" d="M 72 312 
L 518.4 312 
" style="fill:none;stroke:#ffffff;stroke-linecap:square;stroke-width:0.5;"/>
     </g>
     <g id="line2d_49">
      <g>
       <use style="fill:#555555;stroke:#555555;stroke-width:0.5;" x="518.4" xlink:href="#mad065a4e8c" y="312.0"/>
      </g>
     </g>
     <g id="text_22">
      <!-- 50 -->
      <g style="fill:#555555;" transform="translate(526.4 314.759375)scale(0.1 -0.1)">
       <use xlink:href="#BitstreamVeraSans-Roman-35"/>
       <use x="63.623046875" xlink:href="#BitstreamVeraSans-Roman-30"/>
      </g>
     </g>
    </g>
    <g id="ytick_12">
     <g id="line2d_50">
      <path clip-path="url(#paf4016fb26)" d="M 72 278.4 
L 518.4 278.4 
" style="fill:none;stroke:#ffffff;stroke-linecap:square;stroke-width:0.5;"/>
     </g>
     <g id="line2d_51">
      <g>
       <use style="fill:#555555;stroke:#555555;stroke-width:0.5;" x="518.4" xlink:href="#mad065a4e8c" y="278.4"/>
      </g>
     </g>
     <g id="text_23">
      <!-- 100 -->
      <g style="fill:#555555;" transform="translate(526.4 281.159375)scale(0.1 -0.1)">
       <use xlink:href="#BitstreamVeraSans-Roman-31"/>
       <use x="63.623046875" xlink:href="#BitstreamVeraSans-Roman-30"/>
       <use x="127.24609375" xlink:href="#BitstreamVeraSans-Roman-30"/>
      </g>
     </g>
    </g>
    <g id="ytick_13">
     <g id="line2d_52">
      <path clip-path="url(#paf4016fb26)" d="M 72 244.8 
L 518.4 244.8 
" style="fill:none;stroke:#ffffff;stroke-linecap:square;stroke-width:0.5;"/>
     </g>
     <g id="line2d_53">
      <g>
       <use style="fill:#555555;stroke:#555555;stroke-width:0.5;" x="518.4" xlink:href="#mad065a4e8c" y="244.8"/>
      </g>
     </g>
     <g id="text_24">
      <!-- 150 -->
      <g style="fill:#555555;" transform="translate(526.4 247.559375)scale(0.1 -0.1)">
       <use xlink:href="#BitstreamVeraSans-Roman-31"/>
       <use x="63.623046875" xlink:href="#BitstreamVeraSans-Roman-35"/>
       <use x="127.24609375" xlink:href="#BitstreamVeraSans-Roman-30"/>
      </g>
     </g>
    </g>
    <g id="ytick_14">
     <g id="line2d_54">
      <path clip-path="url(#paf4016fb26)" d="M 72 211.2 
L 518.4 211.2 
" style="fill:none;stroke:#ffffff;stroke-linecap:square;stroke-width:0.5;"/>
     </g>
     <g id="line2d_55">
      <g>
       <use style="fill:#555555;stroke:#555555;stroke-width:0.5;" x="518.4" xlink:href="#mad065a4e8c" y="211.2"/>
      </g>
     </g>
     <g id="text_25">
      <!-- 200 -->
      <g style="fill:#555555;" transform="translate(526.4 213.959375)scale(0.1 -0.1)">
       <use xlink:href="#BitstreamVeraSans-Roman-32"/>
       <use x="63.623046875" xlink:href="#BitstreamVeraSans-Roman-30"/>
       <use x="127.24609375" xlink:href="#BitstreamVeraSans-Roman-30"/>
      </g>
     </g>
    </g>
    <g id="ytick_15">
     <g id="line2d_56">
      <path clip-path="url(#paf4016fb26)" d="M 72 177.6 
L 518.4 177.6 
" style="fill:none;stroke:#ffffff;stroke-linecap:square;stroke-width:0.5;"/>
     </g>
     <g id="line2d_57">
      <g>
       <use style="fill:#555555;stroke:#555555;stroke-width:0.5;" x="518.4" xlink:href="#mad065a4e8c" y="177.6"/>
      </g>
     </g>
     <g id="text_26">
      <!-- 250 -->
      <g style="fill:#555555;" transform="translate(526.4 180.359375)scale(0.1 -0.1)">
       <use xlink:href="#BitstreamVeraSans-Roman-32"/>
       <use x="63.623046875" xlink:href="#BitstreamVeraSans-Roman-35"/>
       <use x="127.24609375" xlink:href="#BitstreamVeraSans-Roman-30"/>
      </g>
     </g>
    </g>
    <g id="ytick_16">
     <g id="line2d_58">
      <path clip-path="url(#paf4016fb26)" d="M 72 144 
L 518.4 144 
" style="fill:none;stroke:#ffffff;stroke-linecap:square;stroke-width:0.5;"/>
     </g>
     <g id="line2d_59">
      <g>
       <use style="fill:#555555;stroke:#555555;stroke-width:0.5;" x="518.4" xlink:href="#mad065a4e8c" y="144.0"/>
      </g>
     </g>
     <g id="text_27">
      <!-- 300 -->
      <defs>
       <path d="M 40.578125 39.3125 
Q 47.65625 37.796875 51.625 33 
Q 55.609375 28.21875 55.609375 21.1875 
Q 55.609375 10.40625 48.1875 4.484375 
Q 40.765625 -1.421875 27.09375 -1.421875 
Q 22.515625 -1.421875 17.65625 -0.515625 
Q 12.796875 0.390625 7.625 2.203125 
L 7.625 11.71875 
Q 11.71875 9.328125 16.59375 8.109375 
Q 21.484375 6.890625 26.8125 6.890625 
Q 36.078125 6.890625 40.9375 10.546875 
Q 45.796875 14.203125 45.796875 21.1875 
Q 45.796875 27.640625 41.28125 31.265625 
Q 36.765625 34.90625 28.71875 34.90625 
L 20.21875 34.90625 
L 20.21875 43.015625 
L 29.109375 43.015625 
Q 36.375 43.015625 40.234375 45.921875 
Q 44.09375 48.828125 44.09375 54.296875 
Q 44.09375 59.90625 40.109375 62.90625 
Q 36.140625 65.921875 28.71875 65.921875 
Q 24.65625 65.921875 20.015625 65.03125 
Q 15.375 64.15625 9.8125 62.3125 
L 9.8125 71.09375 
Q 15.4375 72.65625 20.34375 73.4375 
Q 25.25 74.21875 29.59375 74.21875 
Q 40.828125 74.21875 47.359375 69.109375 
Q 53.90625 64.015625 53.90625 55.328125 
Q 53.90625 49.265625 50.4375 45.09375 
Q 46.96875 40.921875 40.578125 39.3125 
" id="BitstreamVeraSans-Roman-33"/>
      </defs>
      <g style="fill:#555555;" transform="translate(526.4 146.759375)scale(0.1 -0.1)">
       <use xlink:href="#BitstreamVeraSans-Roman-33"/>
       <use x="63.623046875" xlink:href="#BitstreamVeraSans-Roman-30"/>
       <use x="127.24609375" xlink:href="#BitstreamVeraSans-Roman-30"/>
      </g>
     </g>
    </g>
    <g id="ytick_17">
     <g id="line2d_60">
      <path clip-path="url(#paf4016fb26)" d="M 72 110.4 
L 518.4 110.4 
" style="fill:none;stroke:#ffffff;stroke-linecap:square;stroke-width:0.5;"/>
     </g>
     <g id="line2d_61">
      <g>
       <use style="fill:#555555;stroke:#555555;stroke-width:0.5;" x="518.4" xlink:href="#mad065a4e8c" y="110.4"/>
      </g>
     </g>
     <g id="text_28">
      <!-- 350 -->
      <g style="fill:#555555;" transform="translate(526.4 113.159375)scale(0.1 -0.1)">
       <use xlink:href="#BitstreamVeraSans-Roman-33"/>
       <use x="63.623046875" xlink:href="#BitstreamVeraSans-Roman-35"/>
       <use x="127.24609375" xlink:href="#BitstreamVeraSans-Roman-30"/>
      </g>
     </g>
    </g>
    <g id="ytick_18">
     <g id="line2d_62">
      <path clip-path="url(#paf4016fb26)" d="M 72 76.8 
L 518.4 76.8 
" style="fill:none;stroke:#ffffff;stroke-linecap:square;stroke-width:0.5;"/>
     </g>
     <g id="line2d_63">
      <g>
       <use style="fill:#555555;stroke:#555555;stroke-width:0.5;" x="518.4" xlink:href="#mad065a4e8c" y="76.8"/>
      </g>
     </g>
     <g id="text_29">
      <!-- 400 -->
      <g style="fill:#555555;" transform="translate(526.4 79.559375)scale(0.1 -0.1)">
       <use xlink:href="#BitstreamVeraSans-Roman-34"/>
       <use x="63.623046875" xlink:href="#BitstreamVeraSans-Roman-30"/>
       <use x="127.24609375" xlink:href="#BitstreamVeraSans-Roman-30"/>
      </g>
     </g>
    </g>
    <g id="ytick_19">
     <g id="line2d_64">
      <path clip-path="url(#paf4016fb26)" d="M 72 43.2 
L 518.4 43.2 
" style="fill:none;stroke:#ffffff;stroke-linecap:square;stroke-width:0.5;"/>
     </g>
     <g id="line2d_65">
      <g>
       <use style="fill:#555555;stroke:#555555;stroke-width:0.5;" x="518.4" xlink:href="#mad065a4e8c" y="43.2"/>
      </g>
     </g>
     <g id="text_30">
      <!-- 450 -->
      <g style="fill:#555555;" transform="translate(526.4 45.959375)scale(0.1 -0.1)">
       <use xlink:href="#BitstreamVeraSans-Roman-34"/>
       <use x="63.623046875" xlink:href="#BitstreamVeraSans-Roman-35"/>
       <use x="127.24609375" xlink:href="#BitstreamVeraSans-Roman-30"/>
      </g>
     </g>
    </g>
    <g id="text_31">
     <!-- open -->
     <g style="fill:#ff0000;" transform="translate(559.605625 209.3746875)rotate(-90.0)scale(0.12 -0.12)">
      <use xlink:href="#BitstreamVeraSans-Roman-6f"/>
      <use x="61.181640625" xlink:href="#BitstreamVeraSans-Roman-70"/>
      <use x="124.658203125" xlink:href="#BitstreamVeraSans-Roman-65"/>
      <use x="186.181640625" xlink:href="#BitstreamVeraSans-Roman-6e"/>
     </g>
    </g>
   </g>
   <g id="line2d_66">
    <path clip-path="url(#paf4016fb26)" d="M 72 340.896 
L 72.966234 340.224 
L 73.932468 338.208 
L 74.898701 338.208 
L 75.864935 338.88 
L 76.831169 336.192 
L 79.72987 336.192 
L 80.696104 335.52 
L 81.662338 334.176 
L 82.628571 334.848 
L 83.594805 332.16 
L 84.561039 328.8 
L 85.527273 328.8 
L 86.493506 332.832 
L 87.45974 330.816 
L 88.425974 330.144 
L 89.392208 328.128 
L 90.358442 327.456 
L 91.324675 320.736 
L 92.290909 320.064 
L 93.257143 321.408 
L 97.122078 321.408 
L 98.088312 309.984 
L 99.054545 307.968 
L 100.020779 304.608 
L 100.987013 305.28 
L 102.919481 305.28 
L 103.885714 303.936 
L 104.851948 303.936 
L 105.818182 300.576 
L 106.784416 299.904 
L 107.750649 299.904 
L 109.683117 298.56 
L 110.649351 298.56 
L 111.615584 294.528 
L 117.412987 294.528 
L 118.379221 285.792 
L 119.345455 286.464 
L 120.311688 295.2 
L 121.277922 296.544 
L 123.21039 296.544 
L 124.176623 293.856 
L 125.142857 293.184 
L 126.109091 294.528 
L 127.075325 294.528 
L 128.041558 289.152 
L 129.974026 289.152 
L 130.94026 281.088 
L 131.906494 279.744 
L 132.872727 279.072 
L 133.838961 281.088 
L 134.805195 281.088 
L 135.771429 279.744 
L 137.703896 279.744 
L 138.67013 275.04 
L 139.636364 273.696 
L 140.602597 271.68 
L 141.568831 267.648 
L 142.535065 267.648 
L 143.501299 271.008 
L 145.433766 268.32 
L 147.366234 268.32 
L 148.332468 266.976 
L 150.264935 266.976 
L 151.231169 266.304 
L 152.197403 263.616 
L 153.163636 262.944 
L 154.12987 264.288 
L 155.096104 266.304 
L 156.062338 266.304 
L 157.028571 263.616 
L 157.994805 262.944 
L 158.961039 262.944 
L 159.927273 260.928 
L 160.893506 258.24 
L 161.85974 256.896 
L 162.825974 263.616 
L 163.792208 262.944 
L 164.758442 264.288 
L 165.724675 264.288 
L 166.690909 263.616 
L 167.657143 261.6 
L 168.623377 260.928 
L 171.522078 260.928 
L 172.488312 254.88 
L 174.420779 254.88 
L 175.387013 247.488 
L 177.319481 247.488 
L 178.285714 248.832 
L 179.251948 245.472 
L 180.218182 246.144 
L 181.184416 243.456 
L 182.150649 242.112 
L 184.083117 241.44 
L 186.015584 240.096 
L 186.981818 241.44 
L 187.948052 242.112 
L 188.914286 240.096 
L 189.880519 240.096 
L 190.846753 238.752 
L 191.812987 238.08 
L 192.779221 239.424 
L 193.745455 240.096 
L 194.711688 240.096 
L 195.677922 237.408 
L 196.644156 237.408 
L 199.542857 228.672 
L 200.509091 231.36 
L 201.475325 229.344 
L 202.441558 229.344 
L 203.407792 225.312 
L 204.374026 222.624 
L 205.34026 223.296 
L 206.306494 221.952 
L 207.272727 219.264 
L 208.238961 218.592 
L 209.205195 223.296 
L 210.171429 223.968 
L 211.137662 223.968 
L 212.103896 221.952 
L 213.07013 220.608 
L 214.036364 220.608 
L 215.968831 215.232 
L 216.935065 215.232 
L 217.901299 214.56 
L 218.867532 220.608 
L 219.833766 221.952 
L 223.698701 221.952 
L 225.631169 213.888 
L 226.597403 213.216 
L 227.563636 211.872 
L 229.496104 214.56 
L 230.462338 214.56 
L 231.428571 213.216 
L 232.394805 213.216 
L 233.361039 209.184 
L 234.327273 208.512 
L 236.25974 200.448 
L 237.225974 200.448 
L 238.192208 199.104 
L 239.158442 198.432 
L 240.124675 196.416 
L 241.090909 195.072 
L 242.057143 197.76 
L 243.023377 199.104 
L 243.98961 199.776 
L 244.955844 199.776 
L 245.922078 196.416 
L 246.888312 195.744 
L 250.753247 195.744 
L 251.719481 190.368 
L 252.685714 190.368 
L 253.651948 185.664 
L 254.618182 185.664 
L 255.584416 189.024 
L 256.550649 186.336 
L 258.483117 186.336 
L 259.449351 183.648 
L 260.415584 183.648 
L 262.348052 179.616 
L 266.212987 179.616 
L 267.179221 170.88 
L 268.145455 174.912 
L 269.111688 174.24 
L 272.976623 174.24 
L 273.942857 171.552 
L 277.807792 171.552 
L 278.774026 168.192 
L 279.74026 166.848 
L 281.672727 165.504 
L 284.571429 165.504 
L 285.537662 163.488 
L 286.503896 160.8 
L 287.47013 164.16 
L 288.436364 164.16 
L 289.402597 161.472 
L 290.368831 160.8 
L 291.335065 160.8 
L 292.301299 157.44 
L 293.267532 157.44 
L 294.233766 154.08 
L 295.2 152.736 
L 296.166234 148.704 
L 297.132468 147.36 
L 299.064935 147.36 
L 300.031169 151.392 
L 300.997403 154.752 
L 301.963636 160.8 
L 302.92987 159.456 
L 303.896104 160.128 
L 304.862338 160.128 
L 305.828571 158.112 
L 306.794805 158.112 
L 307.761039 159.456 
L 308.727273 158.112 
L 312.592208 158.112 
L 313.558442 154.752 
L 314.524675 153.408 
L 315.490909 156.768 
L 316.457143 162.816 
L 318.38961 160.128 
L 319.355844 160.128 
L 320.322078 156.768 
L 321.288312 156.768 
L 323.220779 154.08 
L 324.187013 153.408 
L 325.153247 152.064 
L 326.119481 150.048 
L 327.085714 156.768 
L 328.051948 157.44 
L 329.018182 154.752 
L 329.984416 154.752 
L 330.950649 149.376 
L 331.916883 148.704 
L 333.849351 148.704 
L 334.815584 147.36 
L 335.781818 147.36 
L 336.748052 144.672 
L 337.714286 143.328 
L 339.646753 143.328 
L 340.612987 141.984 
L 341.579221 141.312 
L 342.545455 139.296 
L 344.477922 139.296 
L 346.41039 136.608 
L 347.376623 136.608 
L 348.342857 133.92 
L 349.309091 133.92 
L 350.275325 131.904 
L 351.241558 131.904 
L 352.207792 127.872 
L 353.174026 126.528 
L 355.106494 126.528 
L 356.072727 125.184 
L 357.038961 121.824 
L 358.005195 121.152 
L 359.937662 121.152 
L 360.903896 118.464 
L 363.802597 118.464 
L 364.768831 115.776 
L 365.735065 114.432 
L 366.701299 114.432 
L 367.667532 113.76 
L 368.633766 114.432 
L 369.6 114.432 
L 370.566234 113.76 
L 371.532468 111.744 
L 372.498701 111.744 
L 373.464935 108.384 
L 374.431169 109.056 
L 376.363636 109.056 
L 377.32987 106.368 
L 378.296104 116.448 
L 379.262338 116.448 
L 380.228571 114.432 
L 381.194805 125.856 
L 382.161039 129.216 
L 383.127273 129.216 
L 384.093506 131.232 
L 385.05974 137.952 
L 386.025974 137.952 
L 386.992208 140.64 
L 387.958442 145.344 
L 388.924675 144 
L 390.857143 145.344 
L 391.823377 145.344 
L 392.78961 148.032 
L 393.755844 147.36 
L 394.722078 144.672 
L 395.688312 146.016 
L 396.654545 148.704 
L 397.620779 149.376 
L 398.587013 149.376 
L 399.553247 147.36 
L 401.485714 147.36 
L 402.451948 145.344 
L 403.418182 144 
L 404.384416 143.328 
L 405.350649 143.328 
L 406.316883 141.312 
L 407.283117 141.312 
L 408.249351 138.624 
L 409.215584 139.968 
L 411.148052 137.28 
L 412.114286 137.952 
L 415.979221 137.952 
L 416.945455 133.92 
L 417.911688 133.248 
L 419.844156 127.872 
L 421.776623 129.216 
L 423.709091 123.84 
L 424.675325 123.84 
L 425.641558 122.496 
L 427.574026 121.152 
L 428.54026 119.808 
L 429.506494 121.824 
L 432.405195 119.808 
L 433.371429 119.808 
L 434.337662 119.136 
L 435.303896 121.152 
L 436.27013 121.824 
L 437.236364 120.48 
L 438.202597 124.512 
L 441.101299 124.512 
L 442.067532 122.496 
L 443.033766 123.84 
L 444 123.84 
L 444.966234 121.152 
L 446.898701 121.152 
L 447.864935 123.84 
L 448.831169 123.84 
L 449.797403 119.136 
L 450.763636 119.136 
L 451.72987 120.48 
L 452.696104 120.48 
L 453.662338 118.464 
L 454.628571 117.12 
L 455.594805 116.448 
L 456.561039 116.448 
L 457.527273 113.088 
L 458.493506 112.416 
L 459.45974 113.088 
L 462.358442 113.088 
L 463.324675 106.368 
L 464.290909 106.368 
L 465.257143 102.336 
L 466.223377 103.68 
L 467.18961 103.68 
L 468.155844 102.336 
L 470.088312 103.68 
L 472.020779 103.68 
L 472.987013 108.384 
L 474.919481 108.384 
L 475.885714 110.4 
L 476.851948 107.712 
L 477.818182 109.056 
L 478.784416 109.056 
L 479.750649 107.04 
L 480.716883 107.04 
L 482.649351 103.008 
L 483.615584 96.288 
L 484.581818 92.928 
L 485.548052 94.944 
L 486.514286 95.616 
L 488.446753 95.616 
L 489.412987 91.584 
L 491.345455 91.584 
L 492.311688 88.896 
L 493.277922 88.896 
L 494.244156 86.208 
L 495.21039 85.536 
L 496.176623 85.536 
L 497.142857 84.192 
L 501.007792 84.192 
L 501.974026 82.848 
L 502.94026 83.52 
L 503.906494 83.52 
L 504.872727 80.16 
L 507.771429 80.16 
L 509.703896 74.112 
L 510.67013 75.456 
L 511.636364 77.472 
L 512.602597 75.456 
L 514.535065 75.456 
L 515.501299 71.424 
L 516.467532 70.752 
L 518.4 70.752 
L 518.4 70.752 
" style="fill:none;stroke:#ff0000;stroke-linecap:square;"/>
   </g>
   <g id="line2d_67">
    <path clip-path="url(#paf4016fb26)" d="M 127.075325 344.928 
L 130.94026 344.256 
L 162.825974 343.584 
L 163.792208 342.912 
L 164.758442 342.24 
L 175.387013 341.568 
L 178.285714 340.896 
L 186.015584 340.224 
L 206.306494 339.552 
L 215.002597 338.88 
L 215.968831 338.208 
L 217.901299 337.536 
L 236.25974 336.864 
L 290.368831 336.192 
L 292.301299 335.52 
L 296.166234 334.848 
L 298.098701 334.176 
L 303.896104 333.504 
L 342.545455 332.832 
L 351.241558 332.16 
L 358.005195 331.488 
L 363.802597 330.144 
L 367.667532 329.472 
L 371.532468 328.8 
L 372.498701 328.128 
L 374.431169 327.456 
L 376.363636 326.784 
L 386.992208 326.112 
L 399.553247 325.44 
L 406.316883 324.768 
L 423.709091 324.096 
L 426.607792 322.752 
L 438.202597 322.08 
L 442.067532 321.408 
L 454.628571 320.736 
L 471.054545 320.064 
L 483.615584 319.392 
L 497.142857 318.72 
L 503.906494 318.048 
" style="fill:none;stroke:#800000;stroke-linecap:square;"/>
   </g>
   <g id="patch_8">
    <path d="M 518.4 345.6 
L 518.4 43.2 
" style="fill:none;stroke:#ffffff;stroke-linecap:square;stroke-linejoin:miter;"/>
   </g>
   <g id="patch_9">
    <path d="M 72 345.6 
L 518.4 345.6 
" style="fill:none;stroke:#ffffff;stroke-linecap:square;stroke-linejoin:miter;"/>
   </g>
   <g id="patch_10">
    <path d="M 72 43.2 
L 518.4 43.2 
" style="fill:none;stroke:#ffffff;stroke-linecap:square;stroke-linejoin:miter;"/>
   </g>
   <g id="patch_11">
    <path d="M 72 345.6 
L 72 43.2 
" style="fill:none;stroke:#ffffff;stroke-linecap:square;stroke-linejoin:miter;"/>
   </g>
   <g id="legend_2">
    <g id="patch_12">
     <path d="M 405.71625 339.6 
L 512.4 339.6 
L 512.4 300.7725 
L 405.71625 300.7725 
z
" style="fill:#e5e5e5;stroke:#ffffff;stroke-linejoin:miter;stroke-width:0.5;"/>
    </g>
    <g id="line2d_68">
     <path d="M 414.11625 310.490625 
L 430.91625 310.490625 
" style="fill:none;stroke:#ff0000;stroke-linecap:square;"/>
    </g>
    <g id="line2d_69"/>
    <g id="text_32">
     <!-- open -->
     <g transform="translate(444.11625 314.690625)scale(0.12 -0.12)">
      <use xlink:href="#BitstreamVeraSans-Roman-6f"/>
      <use x="61.181640625" xlink:href="#BitstreamVeraSans-Roman-70"/>
      <use x="124.658203125" xlink:href="#BitstreamVeraSans-Roman-65"/>
      <use x="186.181640625" xlink:href="#BitstreamVeraSans-Roman-6e"/>
     </g>
    </g>
    <g id="line2d_70">
     <path d="M 414.11625 328.104375 
L 430.91625 328.104375 
" style="fill:none;stroke:#800000;stroke-linecap:square;"/>
    </g>
    <g id="line2d_71"/>
    <g id="text_33">
     <!-- postponed -->
     <g transform="translate(444.11625 332.304375)scale(0.12 -0.12)">
      <use xlink:href="#BitstreamVeraSans-Roman-70"/>
      <use x="63.4765625" xlink:href="#BitstreamVeraSans-Roman-6f"/>
      <use x="124.658203125" xlink:href="#BitstreamVeraSans-Roman-73"/>
      <use x="176.7578125" xlink:href="#BitstreamVeraSans-Roman-74"/>
      <use x="215.966796875" xlink:href="#BitstreamVeraSans-Roman-70"/>
      <use x="279.443359375" xlink:href="#BitstreamVeraSans-Roman-6f"/>
      <use x="340.625" xlink:href="#BitstreamVeraSans-Roman-6e"/>
      <use x="404.00390625" xlink:href="#BitstreamVeraSans-Roman-65"/>
      <use x="465.52734375" xlink:href="#BitstreamVeraSans-Roman-64"/>
     </g>
    </g>
   </g>
  </g>
 </g>
 <defs>
  <clipPath id="paf4016fb26">
   <rect height="302.4" width="446.4" x="72.0" y="43.2"/>
  </clipPath>
 </defs>
</svg>
